<?xml version="1.0" encoding="utf-8"?>
<!-- Generator: Adobe Illustrator 24.3.0, SVG Export Plug-In . SVG Version: 6.00 Build 0)  -->
<svg version="1.1" id="Layer_1" xmlns="http://www.w3.org/2000/svg" xmlns:xlink="http://www.w3.org/1999/xlink" x="0px" y="0px"
	 viewBox="0 0 512 512" style="enable-background:new 0 0 512 512;" xml:space="preserve">
<style type="text/css">
	.st0{fill-rule:evenodd;clip-rule:evenodd;fill:#E50007;}
</style>
<g>
	<path class="st0" d="M307.55,143.69c-0.8,0.24-1.01,0.59-1.8,1.28c-0.65,0.55-1.18,0.94-1.8,1.47c-1.42,1.22-2.24,1.98-3.49,3.03
		c-6.19,5.2-14.59,13.31-20.65,18.99c-9.41,8.81-17.9,17.3-26.92,26.06c-17.03,16.52-36.32,36.37-53.36,52.31
		c-14.08,13.17-26.16,25-40.88,38.16c-5.63,5.04-9.17,9.61-16.83,9.88c-12.64,0.43-29.3-10.32-37.83-15.22
		c-7.45-4.28-27.24-15.91-36.78-16.23l6.99,9.59c4.99,7.63,13.4,24.24,17.44,32.32c13.86,27.76,32.59,56.84,56.4,76.18
		c6.09,4.94,11.61,9.1,19.34,13.79c3.39,2.05,6.86,3.76,10.65,5.91c1.32,0.74,10.44,5.01,11.56,5.01c-2.5-2.51-5.06-5.57-7.1-7.95
		c-9.06-10.66-29.25-31.39-35.31-41.98c-5.09-8.88-6.26-14.32-0.6-23.24c6.47-10.2,21.53-22.81,30.99-30.9
		c23.01-19.68,43.77-37.51,67.84-56.18c11.4-8.85,23.27-17.89,35.53-26.64c12.04-8.58,24.13-16.86,36.7-25.17l18.97-12.08
		c1.75-1.01,19.04-11.29,19.32-11.64l16.9-9.33c5.68-3.21,11.19-5.89,17.2-9.12c17.65-9.5,52.69-24.98,72.76-32.07
		c6.59-2.33,12.88-4.52,19.54-6.8l19.98-6.26c-1.61-0.83-23.69-1.07-27.76-1.07c-16.37,0-26.41,0.45-42.04,1.68
		c-11.97,0.94-34.21,3.39-45.1,6.03c-1.96,0.48-4.28,0.67-6.24,1.19c-3.77,1-8.09,1.68-11.95,2.64c-7.97,1.98-15.19,4.22-22.68,6.47
		c-7.7,2.3-14.67,5.02-21.56,7.86C320.9,133.33,308.59,141.56,307.55,143.69L307.55,143.69z M467.44,183.24l14.53-7.42
		c5.04-2.4,10.25-5.16,15-7.48c9.64-4.71,15.18-19.96,15.04-29.72c-1.7,0.07-8.61,3.35-10.49,4.04c-1.29,0.48-2.48,0.88-3.69,1.39
		c-8.58,3.65-20.03,7.95-28.17,11.8c-2.36,1.11-4.64,2.03-7.03,3.06c-1.88,0.8-6.02,2.43-6.79,3.38
		c-2.58-0.13-55.16,25.92-61.71,29.3c-9.33,4.83-21.06,10.6-30.03,15.6c-1.07,0.59-28.39,15.07-29.49,16.45
		c-1.8,0.29-20.54,11.43-23.52,13.12c-37.07,20.92-78.15,47.24-113.65,71.33c-9.88,6.69-22.47,15.47-32.39,22.95l-7.97,5.95
		c-0.91,0.7-1.99,1.16-2.52,2.2c3.53,3.04,27,12.71,32.59,14.73c31.41,11.32,60.81,19.2,93.84,24.87l20.97,3.21l16.52,1.46
		l-13.45-1.19c2.57,0.29,5.12,0.72,7.62,0.95c3.69,0.35,7.36,0.66,11.17,1.04c7.17,0.72,15.49,1.21,22.85,1.33
		c9.16,0.15,14.21,0.63,21.71-2.54c5.82-2.45,10.56-5.51,15.19-9.06c17.24-13.21,32.57-33.86,44.8-52.56
		c12.81-19.57,24.34-41.42,34.27-63.08c5.06-11.03,9.81-22.54,14.28-34.26c2.27-5.95,4.24-11.68,6.28-17.98
		c1.14-3.49,5.26-16.23,5.57-19.08c-4.7,0.65-86.9,44.99-94.73,49.19c-10.6,5.7-20.76,11.63-31.06,17.21
		c-10,5.43-20.58,11.85-30.54,17.38c-20.21,11.24-40.58,23.76-60.78,35.45c-3.46,2.01-29.18,17.03-30.1,18.1
		c1.73-0.28,83.25-35.28,85.22-36.11c3.84-1.59,83.88-35.94,85.19-35.99c-0.46,1.85-5.41,11.1-6.66,13.82
		c-2.09,4.53-4.6,9.68-6.87,14.2c-12.91,25.53-26.92,56.19-55.1,67.51l-1.7,1.01c-1.51,0.03-5.64,1.71-7.45,2.22
		c-2.74,0.76-5.39,1.28-8.15,1.84c-12.99,2.67-32.63,1.28-46.16-0.84c-15.43-2.41-26.25-5.12-41.2-8.74
		c-3.58-0.87-29.39-8.11-30.87-9.1c0.84-1.46,15.6-10.93,16.89-11.83c28.56-19.85,76.02-49.03,106.88-66.59
		c3.27-1.85,6.3-3.55,9.29-5.26c2.48-1.42,7.03-3.8,9.03-5.25l14.43-7.93c4.88-2.71,9.37-5.05,14.5-8
		c9.72-5.54,19.57-10.2,29.14-15.58C409.39,212.93,464.03,184.23,467.44,183.24L467.44,183.24z M96,333.11
		c-0.56-1.21-10.44-11.67-12.4-13.86c-12.44-13.89-24.51-26.83-37-41.44c-8.71-10.17-16.47-19.54-23.87-28.52
		c-3.1-3.76-20.1-25.11-22.7-29.46c-0.34,0.84,3.96,18.33,4.59,20.63c0.97,3.52,1.73,6.75,2.71,10.34
		c9.67,35.18,19.32,48.49,52.59,65.49C63.99,318.39,93.78,332.8,96,333.11z"/>
</g>
</svg>
